<svg width="150" height="150" viewBox="0 0 150 150" fill="none" xmlns="http://www.w3.org/2000/svg">
<rect width="150" height="150" rx="5" fill="#E7E4E5"/>
<path fill-rule="evenodd" clip-rule="evenodd" d="M46.5103 46.5103C53.9336 39.087 64.0018 34.9166 74.5 34.9166C84.9981 34.9166 95.0663 39.087 102.49 46.5103C109.913 53.9336 114.083 64.0018 114.083 74.5C114.083 79.6981 113.059 84.8454 111.07 89.6479C109.081 94.4503 106.165 98.814 102.49 102.49C98.814 106.165 94.4503 109.081 89.6479 111.07C84.8454 113.059 79.6981 114.083 74.5 114.083C69.3018 114.083 64.1545 113.059 59.3521 111.07C54.5496 109.081 50.186 106.165 46.5103 102.49C42.8347 98.814 39.919 94.4503 37.9297 89.6479C35.9405 84.8454 34.9166 79.6981 34.9166 74.5C34.9166 64.0018 39.087 53.9336 46.5103 46.5103ZM74.5 42.8333C66.1014 42.8333 58.0469 46.1696 52.1082 52.1082C46.1696 58.0469 42.8333 66.1014 42.8333 74.5C42.8333 78.6585 43.6524 82.7763 45.2438 86.6183C46.8352 90.4603 49.1677 93.9512 52.1082 96.8917C55.0488 99.8322 58.5397 102.165 62.3817 103.756C66.2236 105.348 70.3414 106.167 74.5 106.167C78.6585 106.167 82.7763 105.348 86.6183 103.756C90.4602 102.165 93.9512 99.8322 96.8917 96.8917C99.8322 93.9512 102.165 90.4602 103.756 86.6183C105.348 82.7763 106.167 78.6585 106.167 74.5C106.167 66.1014 102.83 58.0469 96.8917 52.1082C90.953 46.1696 82.8985 42.8333 74.5 42.8333ZM74.5 54.7083C76.6861 54.7083 78.4583 56.4805 78.4583 58.6666V74.5C78.4583 76.6861 76.6861 78.4583 74.5 78.4583C72.3138 78.4583 70.5416 76.6861 70.5416 74.5V58.6666C70.5416 56.4805 72.3138 54.7083 74.5 54.7083ZM70.5416 90.3333C70.5416 88.1472 72.3138 86.375 74.5 86.375H74.5395C76.7257 86.375 78.4979 88.1472 78.4979 90.3333C78.4979 92.5194 76.7257 94.2916 74.5395 94.2916H74.5C72.3138 94.2916 70.5416 92.5194 70.5416 90.3333Z" fill="#B91C1C"/>
</svg>
