<svg width="150" height="150" viewBox="0 0 150 150" fill="none" xmlns="http://www.w3.org/2000/svg">
<g clip-path="url(#clip0_160_230)">
<path d="M110.153 66.5437C114.66 71.0517 114.66 78.3605 110.153 82.8685L65.5574 127.484C61.0514 131.992 53.7457 131.992 49.2395 127.484L3.5436 81.7682C-0.962442 77.26 -0.962456 69.9511 3.5436 65.4431L48.1397 20.8277C52.6457 16.3197 59.9513 16.3197 64.4573 20.8277L110.153 66.5437Z" fill="#B91C1C"/>
<path fill-rule="evenodd" clip-rule="evenodd" d="M60.6621 122.586L105.258 77.971C107.061 76.168 107.061 73.2442 105.258 71.4411L59.562 25.7252C57.7597 23.922 54.8373 23.922 53.035 25.7252L8.43895 70.3406C6.63653 72.1439 6.63653 75.0674 8.43895 76.8705L54.135 122.586C55.9373 124.39 58.8596 124.39 60.6621 122.586ZM110.153 82.8685C114.66 78.3605 114.66 71.0517 110.153 66.5437L64.4573 20.8277C59.9513 16.3197 52.6457 16.3197 48.1397 20.8277L3.5436 65.4431C-0.962456 69.9511 -0.962442 77.26 3.5436 81.7682L49.2395 127.484C53.7457 131.992 61.0514 131.992 65.5574 127.484L110.153 82.8685Z" fill="#44403C"/>
<path d="M144.459 66.5434C148.965 71.0516 148.965 78.3605 144.459 82.8684L99.8629 127.484C95.3567 131.992 88.051 131.992 83.545 127.484L37.849 81.7681C33.343 77.2599 33.343 69.9511 37.849 65.4431L82.4449 20.8277C86.9511 16.3197 94.2568 16.3197 98.7628 20.8277L144.459 66.5434Z" fill="#DC2626"/>
<path fill-rule="evenodd" clip-rule="evenodd" d="M94.9674 122.586L139.564 77.971C141.366 76.1677 141.366 73.2442 139.564 71.4411L93.8675 25.7251C92.065 23.9219 89.1428 23.9219 87.3405 25.7251L42.7443 70.3405C40.942 72.1436 40.942 75.0674 42.7443 76.8705L88.4403 122.586C90.2428 124.39 93.1651 124.39 94.9674 122.586ZM144.459 82.8684C148.965 78.3605 148.965 71.0516 144.459 66.5434L98.7628 20.8277C94.2568 16.3197 86.9511 16.3197 82.4449 20.8277L37.849 65.4431C33.343 69.9511 33.343 77.2599 37.849 81.7681L83.545 127.484C88.051 131.992 95.3567 131.992 99.8629 127.484L144.459 82.8684Z" fill="#44403C"/>
<path d="M81.8412 50.8406C86.3472 46.3327 93.6529 46.3327 98.1589 50.8406L114.149 66.8376C118.655 71.3455 118.655 78.6544 114.149 83.1624L98.1589 99.1593C93.6529 103.667 86.3472 103.667 81.8412 99.1593L65.8512 83.1624C61.3452 78.6544 61.3452 71.3455 65.8512 66.8376L81.8412 50.8406Z" fill="#EF4444"/>
<path fill-rule="evenodd" clip-rule="evenodd" d="M109.254 71.735L93.2636 55.7383C91.4613 53.935 88.5388 53.935 86.7365 55.7383L70.7467 71.735C68.9442 73.5381 68.9442 76.4618 70.7467 78.2649L86.7365 94.2619C88.5388 96.065 91.4613 96.065 93.2636 94.2619L109.254 78.2649C111.056 76.4618 111.056 73.5381 109.254 71.735ZM98.1589 50.8406C93.6529 46.3327 86.3472 46.3327 81.8412 50.8406L65.8512 66.8376C61.3452 71.3455 61.3452 78.6544 65.8512 83.1624L81.8412 99.1593C86.3472 103.667 93.6529 103.667 98.1589 99.1593L114.149 83.1624C118.655 78.6544 118.655 71.3455 114.149 66.8376L98.1589 50.8406Z" fill="#44403C"/>
</g>
<defs>
<clipPath id="clip0_160_230">
<rect width="150" height="115.435" fill="white" transform="translate(0 17.2826)"/>
</clipPath>
</defs>
</svg>
