<svg width="1950" height="336" viewBox="0 0 1950 336" fill="none" xmlns="http://www.w3.org/2000/svg">
<path fill-rule="evenodd" clip-rule="evenodd" d="M0 4.10905L81.25 24.8522C162.5 45.5954 325 87.0818 487.5 135.483C650 183.883 812.5 239.198 975 204.627C1137.5 170.055 1300 45.5954 1462.5 11.0234C1625 -23.5485 1787.5 31.7666 1868.75 59.4242L1950 87.0818V336H1868.75C1787.5 336 1625 336 1462.5 336C1300 336 1137.5 336 975 336C812.5 336 650 336 487.5 336C325 336 162.5 336 81.25 336H0V4.10905Z" fill="#292524"/>
</svg>
