<svg width="65" height="50" viewBox="0 0 65 50" fill="none" xmlns="http://www.w3.org/2000/svg">
<path d="M47.7331 21.3372C49.6858 23.2898 49.6858 26.4556 47.7331 28.4082L28.4082 47.7332C26.4556 49.6858 23.2898 49.6858 21.3371 47.7332L1.53554 27.9316C-0.417077 25.9789 -0.417083 22.8131 1.53554 20.8605L20.8605 1.53555C22.8131 -0.417068 25.9789 -0.417068 27.9315 1.53555L47.7331 21.3372Z" fill="#B91C1C"/>
<path fill-rule="evenodd" clip-rule="evenodd" d="M26.2869 45.6118L45.6118 26.2869C46.3929 25.5059 46.3929 24.2395 45.6118 23.4585L25.8102 3.65687C25.0292 2.87583 23.7628 2.87582 22.9818 3.65687L3.65686 22.9818C2.87581 23.7629 2.87581 25.0292 3.65686 25.8102L23.4585 45.6118C24.2395 46.3929 25.5058 46.3929 26.2869 45.6118ZM47.7331 28.4082C49.6858 26.4556 49.6858 23.2898 47.7331 21.3372L27.9315 1.53555C25.9789 -0.417068 22.8131 -0.417068 20.8605 1.53555L1.53554 20.8605C-0.417083 22.8131 -0.417077 25.9789 1.53554 27.9316L21.3371 47.7332C23.2898 49.6858 26.4556 49.6858 28.4082 47.7332L47.7331 28.4082Z" fill="#44403C"/>
<path d="M62.5988 21.3371C64.5514 23.2898 64.5514 26.4556 62.5988 28.4082L43.2739 47.7331C41.3212 49.6858 38.1554 49.6858 36.2028 47.7331L16.4012 27.9316C14.4486 25.9789 14.4486 22.8131 16.4012 20.8605L35.7261 1.53554C37.6788 -0.41708 40.8446 -0.41708 42.7972 1.53554L62.5988 21.3371Z" fill="#DC2626"/>
<path fill-rule="evenodd" clip-rule="evenodd" d="M41.1525 45.6118L60.4775 26.2869C61.2585 25.5058 61.2585 24.2395 60.4775 23.4585L40.6759 3.65686C39.8948 2.87581 38.6285 2.87581 37.8475 3.65686L18.5225 22.9818C17.7415 23.7628 17.7415 25.0292 18.5225 25.8102L38.3241 45.6118C39.1052 46.3929 40.3715 46.3929 41.1525 45.6118ZM62.5988 28.4082C64.5514 26.4556 64.5514 23.2898 62.5988 21.3371L42.7972 1.53554C40.8446 -0.41708 37.6788 -0.41708 35.7261 1.53554L16.4012 20.8605C14.4486 22.8131 14.4486 25.9789 16.4012 27.9316L36.2028 47.7331C38.1554 49.6858 41.3212 49.6858 43.2739 47.7331L62.5988 28.4082Z" fill="#44403C"/>
<path d="M35.4645 14.5355C37.4171 12.5829 40.5829 12.5829 42.5355 14.5355L49.4645 21.4645C51.4171 23.4171 51.4171 26.5829 49.4645 28.5355L42.5355 35.4645C40.5829 37.4171 37.4171 37.4171 35.4645 35.4645L28.5355 28.5355C26.5829 26.5829 26.5829 23.4171 28.5355 21.4645L35.4645 14.5355Z" fill="#EF4444"/>
<path fill-rule="evenodd" clip-rule="evenodd" d="M47.3432 23.5858L40.4142 16.6569C39.6332 15.8758 38.3668 15.8758 37.5858 16.6569L30.6569 23.5858C29.8758 24.3668 29.8758 25.6332 30.6569 26.4142L37.5858 33.3432C38.3668 34.1242 39.6332 34.1242 40.4142 33.3432L47.3432 26.4142C48.1242 25.6332 48.1242 24.3668 47.3432 23.5858ZM42.5355 14.5355C40.5829 12.5829 37.4171 12.5829 35.4645 14.5355L28.5355 21.4645C26.5829 23.4171 26.5829 26.5829 28.5355 28.5355L35.4645 35.4645C37.4171 37.4171 40.5829 37.4171 42.5355 35.4645L49.4645 28.5355C51.4171 26.5829 51.4171 23.4171 49.4645 21.4645L42.5355 14.5355Z" fill="#44403C"/>
</svg>
